<svg width="28" height="32" viewBox="0 0 28 32" fill="none" xmlns="http://www.w3.org/2000/svg">
<g filter="url(#filter0_d_150_146)">
<path d="M22.5714 0H5.42857C4.63893 0 4 0.670875 4 1.5V22.5C4 23.3291 4.63893 24 5.42857 24H22.5714C23.3611 24 24 23.3291 24 22.5V1.5C24 0.670875 23.3611 0 22.5714 0ZM23.2857 22.5C23.2857 22.914 22.9657 23.25 22.5714 23.25H5.42857C5.03429 23.25 4.71429 22.914 4.71429 22.5V1.5C4.71429 1.086 5.03429 0.75 5.42857 0.75H22.5714C22.9657 0.75 23.2857 1.086 23.2857 1.5V22.5Z" fill="#0C303A"/>
<path d="M20.0715 9.375H7.92868C7.73118 9.375 7.57153 9.54263 7.57153 9.75C7.57153 9.95737 7.73118 10.125 7.92868 10.125H20.0715C20.269 10.125 20.4287 9.95737 20.4287 9.75C20.4287 9.54263 20.269 9.375 20.0715 9.375Z" fill="#0C303A"/>
<path d="M20.0715 7.125H7.92868C7.73118 7.125 7.57153 7.29263 7.57153 7.5C7.57153 7.70737 7.73118 7.875 7.92868 7.875H20.0715C20.269 7.875 20.4287 7.70737 20.4287 7.5C20.4287 7.29263 20.269 7.125 20.0715 7.125Z" fill="#0C303A"/>
<path d="M20.0715 13.875H7.92868C7.73118 13.875 7.57153 14.0426 7.57153 14.25C7.57153 14.4574 7.73118 14.625 7.92868 14.625H20.0715C20.269 14.625 20.4287 14.4574 20.4287 14.25C20.4287 14.0426 20.269 13.875 20.0715 13.875Z" fill="#0C303A"/>
<path d="M20.0715 16.125H7.92868C7.73118 16.125 7.57153 16.2926 7.57153 16.5C7.57153 16.7074 7.73118 16.875 7.92868 16.875H20.0715C20.269 16.875 20.4287 16.7074 20.4287 16.5C20.4287 16.2926 20.269 16.125 20.0715 16.125Z" fill="#0C303A"/>
<path d="M20.0715 18.375H7.92868C7.73118 18.375 7.57153 18.5426 7.57153 18.75C7.57153 18.9574 7.73118 19.125 7.92868 19.125H20.0715C20.269 19.125 20.4287 18.9574 20.4287 18.75C20.4287 18.5426 20.269 18.375 20.0715 18.375Z" fill="#0C303A"/>
<path d="M20.0715 11.625H7.92868C7.73118 11.625 7.57153 11.7926 7.57153 12C7.57153 12.2074 7.73118 12.375 7.92868 12.375H20.0715C20.269 12.375 20.4287 12.2074 20.4287 12C20.4287 11.7926 20.269 11.625 20.0715 11.625Z" fill="#0C303A"/>
<path d="M7.92868 5.625H13.643C13.8405 5.625 14.0001 5.45737 14.0001 5.25C14.0001 5.04263 13.8405 4.875 13.643 4.875H7.92868C7.73118 4.875 7.57153 5.04263 7.57153 5.25C7.57153 5.45737 7.73118 5.625 7.92868 5.625Z" fill="#0C303A"/>
</g>
<defs>
<filter id="filter0_d_150_146" x="0" y="0" width="28" height="32" filterUnits="userSpaceOnUse" color-interpolation-filters="sRGB">
<feFlood flood-opacity="0" result="BackgroundImageFix"/>
<feColorMatrix in="SourceAlpha" type="matrix" values="0 0 0 0 0 0 0 0 0 0 0 0 0 0 0 0 0 0 127 0" result="hardAlpha"/>
<feOffset dy="4"/>
<feGaussianBlur stdDeviation="2"/>
<feComposite in2="hardAlpha" operator="out"/>
<feColorMatrix type="matrix" values="0 0 0 0 0 0 0 0 0 0 0 0 0 0 0 0 0 0 0.25 0"/>
<feBlend mode="normal" in2="BackgroundImageFix" result="effect1_dropShadow_150_146"/>
<feBlend mode="normal" in="SourceGraphic" in2="effect1_dropShadow_150_146" result="shape"/>
</filter>
</defs>
</svg>
