<svg width="52" height="42" viewBox="0 0 52 42" fill="none" xmlns="http://www.w3.org/2000/svg">
<path d="M51 26.7143V38.1429C51 39.7209 49.7564 41 48.2222 41H3.77778C2.24367 41 1 39.7209 1 38.1429V26.7143M51 26.7143V18.1429C51 14.9869 48.5128 12.4286 45.4444 12.4286H37.1111M51 26.7143H39.8889M1 26.7143V18.1429C1 14.9869 3.48731 12.4286 6.55556 12.4286H14.8889M1 26.7143H12.1111M37.1111 12.4286V6.71429C37.1111 3.55837 34.6239 1 31.5556 1H20.4444C17.3762 1 14.8889 3.55837 14.8889 6.71429V12.4286M37.1111 12.4286H14.8889M39.8889 26.7143H12.1111M39.8889 26.7143V29.5714V23.8571M12.1111 26.7143V23.8571M12.1111 26.7143V29.5714" stroke="#0C303A" stroke-width="2" stroke-linecap="round" stroke-linejoin="round"/>
</svg>
