<svg width="50" height="55" viewBox="0 0 50 55" fill="none" xmlns="http://www.w3.org/2000/svg">
<path d="M24.7068 52.5418H2.59357V4.59764H8.88023C9.42999 5.68268 10.5942 6.43056 11.9395 6.43056H29.991C31.3363 6.43056 32.507 5.67655 33.0503 4.59764H39.3046V32.68C39.3046 33.3543 39.8867 33.906 40.5981 33.906C41.3096 33.906 41.8917 33.3543 41.8917 32.68V4.06431C41.8917 3.00379 40.9668 2.14556 39.8349 2.14556H33.1925C32.7269 0.901137 31.4656 0 29.991 0H11.9395C10.4713 0 9.21009 0.901137 8.73794 2.14556H2.05675C0.92489 2.14556 0 3.00379 0 4.06431V53.0813C0 54.1418 0.92489 55 2.05675 55H24.7068C25.4183 55 26.0004 54.4483 26.0004 53.774C26.0004 53.0996 25.4248 52.5418 24.7068 52.5418Z" fill="#0C303A"/>
<path d="M33.5353 20.8794C33.5353 20.2051 32.9532 19.6534 32.2418 19.6534H8.48569C8.13643 19.3285 7.65782 19.1262 7.12099 19.1262C6.04734 19.1262 5.18066 19.9476 5.18066 20.9652C5.18066 21.9828 6.04734 22.8043 7.12099 22.8043C7.73543 22.8043 8.28519 22.5345 8.64092 22.1054H32.2418C32.9532 22.1054 33.5353 21.5537 33.5353 20.8794ZM33.5353 29.3084C33.5353 28.6341 32.9532 28.0824 32.2418 28.0824H8.67972C8.324 27.6287 7.7613 27.3406 7.12099 27.3406C6.04734 27.3406 5.18066 28.162 5.18066 29.1797C5.18066 30.1973 6.04734 31.0187 7.12099 31.0187C7.62548 31.0187 8.08469 30.8348 8.43395 30.5344H32.2418C32.9532 30.5344 33.5353 29.9827 33.5353 29.3084ZM8.55037 36.5727H8.49216C8.1429 36.2416 7.65782 36.0332 7.12099 36.0332C6.04734 36.0332 5.18066 36.8546 5.18066 37.8723C5.18066 38.8899 6.04734 39.7113 7.12099 39.7113C7.73543 39.7113 8.27872 39.4416 8.63445 39.0247H27.8566C28.5681 39.0247 29.1502 38.473 29.1502 37.7987C29.1502 37.1244 28.5681 36.5727 27.8566 36.5727H8.55037ZM49.3037 28.5299C48.6699 28.2172 47.8873 28.4502 47.5574 29.0509L35.0035 51.9226L25.7158 47.1043C25.0949 46.7794 24.2994 47.0001 23.963 47.5886C23.6202 48.1771 23.8531 48.9311 24.474 49.2499L34.9582 54.6935C35.5791 55.0184 36.3747 54.7977 36.711 54.2092C36.7692 54.105 36.8145 53.9946 36.8403 53.8843L49.8535 30.1911C50.1833 29.5904 49.9376 28.8425 49.3037 28.5299Z" fill="#0C303A"/>
</svg>
