<svg width="50" height="50" viewBox="0 0 50 50" fill="none" xmlns="http://www.w3.org/2000/svg">
<path d="M17.7227 1.23761H32.3019C45.6187 1.23761 48.7623 4.40593 48.7623 17.7228V32.302C48.7623 45.6188 45.594 48.7624 32.2771 48.7624H17.6979C4.38111 48.7624 1.23755 45.594 1.23755 32.2772V17.698C1.23755 4.40593 4.40587 1.23761 17.7227 1.23761Z" fill="#5181B8"/>
<mask id="mask0_147_51" style="mask-type:luminance" maskUnits="userSpaceOnUse" x="1" y="1" width="48" height="48">
<path d="M17.7227 1.23761H32.3019C45.6187 1.23761 48.7623 4.40593 48.7623 17.7228V32.302C48.7623 45.6188 45.594 48.7624 32.2771 48.7624H17.6979C4.38111 48.7624 1.23755 45.594 1.23755 32.2772V17.698C1.23755 4.40593 4.40587 1.23761 17.7227 1.23761Z" fill="white"/>
</mask>
<g mask="url(#mask0_147_51)">
<path d="M0 0H50V50H0V0Z" fill="#5181B8"/>
</g>
<path fill-rule="evenodd" clip-rule="evenodd" d="M40.1486 17.599C40.3714 16.8564 40.1486 16.3366 39.109 16.3366H35.6437C34.7526 16.3366 34.3565 16.8069 34.1338 17.3267C34.1338 17.3267 32.3763 21.6337 29.8763 24.4059C29.0595 25.2228 28.713 25.4703 28.2674 25.4703C28.0446 25.4703 27.7229 25.2228 27.7229 24.4802V17.599C27.7229 16.7079 27.4753 16.3366 26.7328 16.3366H21.2872C20.7427 16.3366 20.3961 16.7574 20.3961 17.1287C20.3961 17.9703 21.6338 18.1683 21.7823 20.4951V25.5941C21.7823 26.7079 21.5842 26.9059 21.1387 26.9059C19.9753 26.9059 17.104 22.599 15.4209 17.6485C15.0743 16.7327 14.7526 16.3366 13.8615 16.3366H10.3961C9.40603 16.3366 9.20801 16.8069 9.20801 17.3267C9.20801 18.2426 10.3714 22.797 14.6783 28.8119C17.5496 32.9208 21.5842 35.1485 25.2476 35.1485C27.4506 35.1485 27.7229 34.6535 27.7229 33.8119V30.6931C27.7229 29.703 27.9209 29.505 28.6387 29.505C29.1585 29.505 30.0248 29.7525 32.0793 31.7327C34.4308 34.0842 34.8268 35.1485 36.1387 35.1485H39.604C40.5941 35.1485 41.0892 34.6535 40.7922 33.6881C40.4704 32.7228 39.3565 31.3119 37.8714 29.6287C37.0545 28.6634 35.8417 27.6485 35.4951 27.1287C34.9753 26.4604 35.1238 26.1634 35.4951 25.5941C35.4951 25.5693 39.7278 19.6287 40.1486 17.599Z" fill="white"/>
</svg>
